<?xml version="1.0" encoding="UTF-8"?>
<svg id="Calque_2" data-name="Calque 2" xmlns="http://www.w3.org/2000/svg" viewBox="0 0 1000 1000">
  <defs>
    <style>
      .cls-1 {
        stroke-width: 10px;
      }

      .cls-1, .cls-2, .cls-3, .cls-4 {
        fill: none;
      }

      .cls-1, .cls-2, .cls-3, .cls-5 {
        stroke-miterlimit: 10;
      }

      .cls-1, .cls-3, .cls-4, .cls-5 {
        stroke: #33344b;
      }

      .cls-2 {
        stroke: #ededed;
      }

      .cls-2, .cls-3, .cls-4, .cls-5 {
        stroke-width: 13px;
      }

      .cls-6 {
        fill: #636374;
      }

      .cls-7 {
        fill: #33344b;
      }

      .cls-4 {
        stroke-linecap: round;
        stroke-linejoin: round;
      }

      .cls-5, .cls-8 {
        fill: #ededed;
      }
    </style>
  </defs>
  <g id="Calque_1-2" data-name="Calque 1">
    <rect class="cls-6" width="1000" height="1000"/>
    <path class="cls-8" d="M274.4,934.26c-26.4,0-47.87-21.48-47.87-47.87v-100.83c-28.05-23.54-49.51-59.68-51.69-88.81-2.59-34.56,14.25-68.93,48.34-124.18,17.71-28.7,42.53-46.46,63.57-57.17-8.62-9.96-16.41-20.51-23.33-31.59-69.57-2.87-125.29-60.37-125.29-130.64s57.89-129.99,129.34-130.75c37.11-55.6,96.34-96.33,164.78-112.78,1.87-.45,3.77-.89,5.67-1.3l96.15-45.46,13.15,16.19,70.44-26.22-14.45,48.46-4.9,16.42c56.74,19.8,105.3,56.79,137.32,104.8,1.78-.07,3.55-.11,5.32-.11,72.1,0,130.75,58.66,130.75,130.75s-58.66,130.75-130.75,130.75c-.47,0-.94,0-1.41,0-6.37,10.18-13.47,19.91-21.25,29.13,21.96,10.39,49.29,28.61,68.37,59.52,34.09,55.24,50.92,89.61,48.33,124.17-2.08,27.85-24.53,69.11-58.49,94.16v95.48c0,26.4-21.48,47.87-47.87,47.87h-454.22Z"/>
    <path class="cls-4" d="M751.3,356.24c0,36.38-9.21,70.8-25.62,101.38-40.73,75.94-125.8,128.18-224.16,128.18s-182.89-51.9-223.78-127.44c-16.65-30.76-26.01-65.43-26.01-102.12,0-39.02,10.59-75.76,29.29-107.94,32.39-55.77,89.11-97.81,157.12-114.16,2.62-.63,5.25-1.22,7.91-1.78,26.97-12.75,53.94-25.51,80.92-38.26l12.09,14.89,40-14.89c-4.03,13.52-8.08,27.02-12.11,40.54,67.46,16.78,123.61,58.91,155.59,114.57,18.37,31.96,28.76,68.38,28.76,107.03Z"/>
    <path class="cls-3" d="M251.73,356.24c0,36.69,9.36,71.36,26.01,102.12-2.92.24-5.88.37-8.87.37-58.29,0-105.55-47.26-105.55-105.56s47.26-105.56,105.55-105.56c4.11,0,8.16.24,12.14.69-18.7,32.18-29.29,68.92-29.29,107.94Z"/>
    <path class="cls-3" d="M846.51,353.17c0,58.3-47.27,105.56-105.56,105.56-5.19,0-10.29-.38-15.27-1.11,16.42-30.58,25.62-64.99,25.62-101.38,0-38.65-10.39-75.07-28.76-107.03,5.97-1.05,12.12-1.6,18.41-1.6,58.29,0,105.56,47.27,105.56,105.56Z"/>
    <ellipse class="cls-7" cx="507.15" cy="414.16" rx="26.46" ry="19.28"/>
    <line class="cls-1" x1="507.15" y1="433.43" x2="507.15" y2="484.02"/>
    <path class="cls-7" d="M457.19,450.42c18.64,21.39,47.65,30.07,73.36,17.34,8.15-3.92,15.58-9.76,22.46-17.34-2.71,14.07-14.22,26.57-27.67,32.17-26.85,11.87-61.72-2.93-68.15-32.17h0Z"/>
    <path class="cls-7" d="M404.17,330.39c-23.13,0-41.88,18.75-41.88,41.88s18.75,41.88,41.88,41.88,41.88-18.75,41.88-41.88-18.75-41.88-41.88-41.88ZM403.07,375.7c-8.85,0-16.03-7.18-16.03-16.03s7.18-16.03,16.03-16.03,16.03,7.18,16.03,16.03-7.18,16.03-16.03,16.03Z"/>
    <path class="cls-7" d="M601.96,330.39c-23.13,0-41.88,18.75-41.88,41.88s18.75,41.88,41.88,41.88,41.88-18.75,41.88-41.88-18.75-41.88-41.88-41.88ZM603.06,375.7c-8.85,0-16.03-7.18-16.03-16.03s7.18-16.03,16.03-16.03,16.03,7.18,16.03,16.03-7.18,16.03-16.03,16.03Z"/>
    <rect class="cls-5" x="328.71" y="600.66" width="345.62" height="200.06" rx="18" ry="18"/>
    <rect class="cls-5" x="290.16" y="639.74" width="422.72" height="200.95" rx="18" ry="18"/>
    <path class="cls-7" d="M728.63,909.06h-454.23c-12.52,0-22.68-10.15-22.68-22.68v-183.5c0-12.52,10.15-22.68,22.68-22.68,70.82,15.78,117.56,5.62,147.44-6.98,22.79-9.61,44-24.1,78.14-23.89,30.76.19,51.25,12.17,68.38,19.7,31.89,14.02,82.2,25.82,160.26,11.16,1.96.06,9.89.5,16.03,6.64,4.1,4.1,6.64,9.77,6.64,16.03v183.5c0,12.52-10.15,22.68-22.68,22.68Z"/>
    <ellipse class="cls-2" cx="501.52" cy="772.1" rx="93.36" ry="85.8"/>
    <path class="cls-8" d="M419.09,889.53h-150.22v-31.62c45.64,2.94,91.28,5.89,136.92,8.83,4.43,7.6,8.87,15.2,13.3,22.79Z"/>
    <path class="cls-8" d="M583.54,889.53h150.22s0-31.62,0-31.62c-45.64,2.94-91.28,5.89-136.92,8.83-4.43,7.6-8.87,15.2-13.3,22.79Z"/>
    <path class="cls-5" d="M332.48,525.25s-57.16,10.8-87.86,60.55c-30.7,49.75-46.75,81.15-44.66,109.06,2.09,27.91,34.89,79.54,78.84,90.71,43.96,11.16,65.18-10.47,65.18-10.47l-48.43-28.61,36.98-8.37-35.58-30.7,47.04-9.77s-59.78-32.79-56.11-59.31c3.68-26.51,56.59-76.08,86.55-84.44l-41.95-28.66Z"/>
    <path class="cls-5" d="M677.34,525.25s57.16,10.8,87.86,60.55c30.7,49.75,46.75,81.15,44.66,109.06-2.09,27.91-34.89,79.54-78.84,90.71-43.96,11.16-65.18-10.47-65.18-10.47l48.43-28.61-36.98-8.37,35.58-30.7-47.04-9.77s59.78-32.79,56.11-59.31c-3.68-26.51-56.59-76.08-86.55-84.44l41.95-28.66Z"/>
    <path class="cls-7" d="M257.58,306.68s-46.82-14.42-57.8,30.94c0,0,32.89-13.76,53.52-7.23l4.28-23.71Z"/>
    <path class="cls-7" d="M746.04,306.68s46.82-14.42,57.8,30.94c0,0-32.89-13.76-53.52-7.23l-4.28-23.71Z"/>
    <path class="cls-8" d="M454.59,735.61c4.6-9.6,12.92-13.81,15.22-14.94,15.66-7.65,37-2.94,39.07,4.88,1.43,5.41-7.37,8.39-26.57,29.07-13.68,14.73-15.98,20.5-20.41,19.69-8-1.46-14.9-22.87-7.31-38.71Z"/>
    <path class="cls-8" d="M545.41,814.64c-2.19,4.74-6.14,6.82-7.24,7.38-7.45,3.78-17.59,1.45-18.58-2.41-.68-2.67,3.5-4.15,12.63-14.36,6.5-7.28,7.6-10.12,9.71-9.72,3.8.72,7.08,11.29,3.47,19.12Z"/>
    <path class="cls-5" d="M607.44,687.65c-34.9-7.6-69.8-15.19-104.71-22.79h0c-13.7,1.14-28.31,2.9-43.68,5.48-24.99,4.2-47.56,9.83-67.45,15.91,10.05-9.91,20.87-21.74,31.69-35.66,12.21-15.71,21.87-30.83,29.49-44.34h99.91c18.25,27.13,36.5,54.26,54.74,81.4Z"/>
  </g>
</svg>